<svg xmlns="http://www.w3.org/2000/svg" width="512" height="512" viewBox="0 0 512 512">
  <g fill="none" fill-rule="evenodd">
    <circle cx="256" cy="256" r="256" fill="#0C77F8"/>
    <path fill="#FFFFFF" fill-rule="nonzero" d="M211.225765,139 L192.435449,176.58063 L128.548378,176.58063 C116.056577,176.58063 106,186.637169 106,199.129008 L106,349.451642 C106,361.943443 116.056577,372.00002 128.548378,372.00002 L384.096664,372.00002 C396.588465,372.00002 406.645042,361.943443 406.645042,349.451642 L406.645042,199.129008 C406.645042,186.637169 396.588465,176.58063 384.096664,176.58063 L320.209592,176.58063 L301.419277,139 L211.225765,139 Z M256.322521,210.403197 C289.53102,210.403197 316.451529,237.323969 316.451529,270.532318 C316.451529,303.740442 289.53102,330.661327 256.322521,330.661327 C223.114773,330.661327 196.193512,303.740442 196.193512,270.532318 C196.193512,237.323969 223.114773,210.403197 256.322521,210.403197 Z"/>
  </g>
</svg>
